# xmcd
#
# Track frame offsets:
#	182
#	84445
#	131735
#	162807
#	192860
#	231380
#
# Disc length: 3507 seconds
#
# Revision: 0
# Processed by: cddbd v1.5.1PL0 Copyright (c) Steve Scherf et al.
# Submitted via: dBpowerAMP V4.0
#
DISCID=470db106
DTITLE=Deep Purple - Live
DYEAR=1900
DGENRE=
TTITLE0=Wring That Neck (Live In London 1973)
TTITLE1=Child In Time (Live In London 1973)
TTITLE2=Black Night (Live In Stocholm 1970)
TTITLE3=Highway Star (Live In London 1972)
TTITLE4=Strange Kind Of Woman (Live In London 1972)
TTITLE5=Lucille (Live In London 1972)
EXTD=
EXTT0=
EXTT1=
EXTT2=
EXTT3=
EXTT4=
EXTT5=
PLAYORDER=
